@startuml classes
!define MAIN_CLASS_COLOR #a8c9ea

set namespaceSeparator none
class "app.App" as app.App MAIN_CLASS_COLOR {
  current_setting_page : Optional[BasePage]
  event_bus
  sample_page
  setting_pages : dict[str, BasePage]
  sidebar
  on_build_page(data: THEME_DATA_TYPE) -> None
  on_show_page(page_name: str) -> None
}
class "customtkinter.windows.ctk_tk.CTk" as customtkinter.windows.ctk_tk.CTk {
  focused_widget_before_widthdraw : NoneType
  block_update_dimensions_event()
  cget(attribute_name: str) -> any
  configure()
  destroy()
  geometry(geometry_string: str)
  iconbitmap(bitmap, default)
  iconify()
  mainloop()
  maxsize(width: Optional[int], height: Optional[int])
  minsize(width: Optional[int], height: Optional[int])
  resizable(width: bool, height: bool)
  unblock_update_dimensions_event()
  update()
  withdraw()
  wm_iconbitmap(bitmap, default)
}
class "customtkinter.windows.widgets.appearance_mode.appearance_mode_base_class.CTkAppearanceModeBaseClass" as customtkinter.windows.widgets.appearance_mode.appearance_mode_base_class.CTkAppearanceModeBaseClass {
  destroy()
}
class "customtkinter.windows.widgets.core_widget_classes.ctk_base_class.CTkBaseClass" as customtkinter.windows.widgets.core_widget_classes.ctk_base_class.CTkBaseClass {
  {abstract}bind(sequence, command, add)
  bind_all(sequence, func, add)
  cget(attribute_name: str)
  config()
  configure(require_redraw)
  destroy()
  grid()
  grid_forget()
  pack()
  pack_forget()
  place()
  place_forget()
  {abstract}unbind(sequence, funcid)
  unbind_all(sequence)
}
class "customtkinter.windows.widgets.ctk_frame.CTkFrame" as customtkinter.windows.widgets.ctk_frame.CTkFrame {
  bind(sequence, command, add)
  cget(attribute_name: str) -> any
  configure(require_redraw)
  unbind(sequence, funcid)
  winfo_children() -> List[any]
}
class "customtkinter.windows.widgets.ctk_scrollable_frame.CTkScrollableFrame" as customtkinter.windows.widgets.ctk_scrollable_frame.CTkScrollableFrame {
  cget(attribute_name: str)
  check_if_master_is_canvas(widget)
  configure()
  destroy()
  grid()
  grid_forget()
  grid_info()
  grid_propagate()
  grid_remove()
  lift(aboveThis)
  lower(belowThis)
  pack()
  pack_forget()
  place()
  place_forget()
}
class "customtkinter.windows.widgets.scaling.scaling_base_class.CTkScalingBaseClass" as customtkinter.windows.widgets.scaling.scaling_base_class.CTkScalingBaseClass {
  destroy()
}
class "lib.components.base.BaseComponent" as lib.components.base.BaseComponent MAIN_CLASS_COLOR {
  event_bus
  {abstract}register_events() -> dict[str, Callable]
}
class "lib.components.base.BasePage" as lib.components.base.BasePage MAIN_CLASS_COLOR {
}
class "lib.components.base.EventBus" as lib.components.base.EventBus MAIN_CLASS_COLOR {
  listeners : dict[str, list[Callable]]
  emit(event_name: str) -> None
  subscribe(event_name: str, callback: Callable) -> None
}
class "lib.components.home.HomePage" as lib.components.home.HomePage MAIN_CLASS_COLOR {
  base_data : CTkTextbox
  base_file : CTkEntry
  new_data : dict
  save_data : CTkTextbox
  save_file : CTkEntry
  load_file(filepath: str) -> None
  on_open_file_dialog() -> None
  on_recieve_data(fm: str, data: dict[str, int | str | list[str]]) -> None
  on_save_file() -> None
  register_events() -> dict[str, Callable]
}
class "lib.components.sample.SamplePage" as lib.components.sample.SamplePage MAIN_CLASS_COLOR {
  disabled_switch : CTkSwitch
  sample_items : dict
  on_change_conf(item_name: str, values: THEME_DATA_TYPE) -> None
  on_disabled_sample() -> None
  on_open_window() -> None
  register_events() -> dict[str, Callable]
}
class "lib.components.setting.SettingPage" as lib.components.setting.SettingPage MAIN_CLASS_COLOR {
  entry_items : dict
  page_name : str
  create_entry_color(key: str, val: str | list[str], row: int) -> int
  create_entry_font(key: str, val: dict[str, int | str], row: int) -> int
  create_entry_number(key: str, val: str, row: int) -> int
  create_str_var(name: str, value: str) -> ctk.StringVar
  get_data() -> THEME_DATA_TYPE
  on_get_data() -> None
  on_trace_var() -> None
  register_events() -> dict[str, Callable]
  unset_global_var(name: str) -> None
}
class "lib.components.sidebar.SideBar" as lib.components.sidebar.SideBar MAIN_CLASS_COLOR {
  current_item : CTkButton
  fg_color : str
  header_frame
  hover_color : tuple
  main_frame
  sidebar_items : dict[str, ctk.CTkButton]
  switch_mode : CTkSwitch
  on_add_button(frame_name: SideBarFrameName, page_name: str) -> None
  on_del_all_button(exclude_page_name: str) -> None
  on_select_button(page_name: str) -> None
  on_switch_mode() -> None
  register_events() -> dict[str, Callable]
}
app.App --|> customtkinter.windows.ctk_tk.CTk
customtkinter.windows.ctk_tk.CTk --|> customtkinter.windows.widgets.appearance_mode.appearance_mode_base_class.CTkAppearanceModeBaseClass
customtkinter.windows.ctk_tk.CTk --|> customtkinter.windows.widgets.scaling.scaling_base_class.CTkScalingBaseClass
customtkinter.windows.widgets.core_widget_classes.ctk_base_class.CTkBaseClass --|> customtkinter.windows.widgets.appearance_mode.appearance_mode_base_class.CTkAppearanceModeBaseClass
customtkinter.windows.widgets.core_widget_classes.ctk_base_class.CTkBaseClass --|> customtkinter.windows.widgets.scaling.scaling_base_class.CTkScalingBaseClass
customtkinter.windows.widgets.ctk_frame.CTkFrame --|> customtkinter.windows.widgets.core_widget_classes.ctk_base_class.CTkBaseClass
customtkinter.windows.widgets.ctk_scrollable_frame.CTkScrollableFrame --|> customtkinter.windows.widgets.appearance_mode.appearance_mode_base_class.CTkAppearanceModeBaseClass
customtkinter.windows.widgets.ctk_scrollable_frame.CTkScrollableFrame --|> customtkinter.windows.widgets.scaling.scaling_base_class.CTkScalingBaseClass
lib.components.base.BasePage --|> customtkinter.windows.widgets.ctk_scrollable_frame.CTkScrollableFrame
lib.components.base.BasePage --|> lib.components.base.BaseComponent
lib.components.home.HomePage --|> lib.components.base.BasePage
lib.components.sample.SamplePage --|> lib.components.base.BasePage
lib.components.setting.SettingPage --|> lib.components.base.BasePage
lib.components.sidebar.SideBar --|> customtkinter.windows.widgets.ctk_frame.CTkFrame
lib.components.sidebar.SideBar --|> lib.components.base.BaseComponent
customtkinter.windows.ctk_tk.CTk --* customtkinter.windows.ctk_tk.CTk : focused_widget_before_widthdraw
customtkinter.windows.widgets.ctk_frame.CTkFrame --* customtkinter.windows.widgets.ctk_scrollable_frame.CTkScrollableFrame : _parent_frame
customtkinter.windows.widgets.ctk_frame.CTkFrame --* lib.components.sidebar.SideBar : header_frame
customtkinter.windows.widgets.ctk_scrollable_frame.CTkScrollableFrame --* lib.components.sidebar.SideBar : main_frame
lib.components.base.EventBus --* app.App : event_bus
lib.components.sample.SamplePage --* app.App : sample_page
lib.components.sidebar.SideBar --* app.App : sidebar
customtkinter.windows.ctk_tk.CTk --o lib.components.setting.SettingPage : _master
lib.components.base.EventBus --o lib.components.base.BaseComponent : event_bus
@enduml
